<?xml version="1.0" encoding="UTF-8"?>
<svg id="Layer_2" data-name="Layer 2" xmlns="http://www.w3.org/2000/svg" viewBox="0 0 1133.5 2092.49">
  <defs>
    <style>
      .cls-1, .cls-2, .cls-3, .cls-4, .cls-5, .cls-6, .cls-7 {
        stroke-miterlimit: 10;
      }

      .cls-1, .cls-2, .cls-4, .cls-7 {
        stroke-width: 5px;
      }

      .cls-1, .cls-3, .cls-5, .cls-6 {
        stroke: #000;
      }

      .cls-2 {
        fill: #ddd;
        stroke: #fff;
      }

      .cls-3 {
        fill: #662d91;
        stroke-width: 9px;
      }

      .cls-4 {
        fill: #fbb03b;
      }

      .cls-4, .cls-7 {
        stroke: #dd7b07;
      }

      .cls-5 {
        fill: #fff;
      }

      .cls-8 {
        fill: #999;
      }

      .cls-6 {
        fill: #1a1a1a;
      }

      .cls-7 {
        fill: #ffd974;
      }
    </style>
  </defs>
  <g id="Layer_1-2" data-name="Layer 1">
    <g>
      <rect class="cls-3" x="4.5" y="4.5" width="1124.5" height="2083.49"/>
      <g>
        <rect class="cls-6" x="224.45" y="337.08" width="574.43" height="1294.07" rx="33.12" ry="33.12"/>
        <rect class="cls-5" x="351.16" y="766.46" width="321.6" height="435.39" rx="33.12" ry="33.12"/>
      </g>
      <g>
        <ellipse class="cls-5" cx="511.7" cy="573.43" rx="93.59" ry="93.44"/>
        <g>
          <ellipse class="cls-1" cx="510.83" cy="574.29" rx="23.4" ry="23.36"/>
          <path class="cls-1" d="M509.97,670.32l.87-96.03"/>
          <path class="cls-1" d="M509.88,574.54l-83.16-48.27"/>
          <path class="cls-1" d="M510.27,574.16l85.45-44.1"/>
        </g>
      </g>
      <g>
        <ellipse class="cls-5" cx="510.01" cy="1414.35" rx="93.59" ry="93.44"/>
        <g>
          <ellipse class="cls-1" cx="509.15" cy="1415.21" rx="23.4" ry="23.36"/>
          <path class="cls-1" d="M508.28,1511.24l.87-96.03"/>
          <path class="cls-1" d="M508.2,1415.46l-83.16-48.27"/>
          <path class="cls-1" d="M508.58,1415.08l85.45-44.1"/>
        </g>
      </g>
      <path class="cls-2" d="M956.11,304.99h171.39V1926.99h-170.48c-27.33,0-49.52-22.19-49.52-49.52V353.59c0-26.83,21.78-48.61,48.61-48.61Z"/>
      <rect class="cls-8" x="972" y="432.49" width="90" height="552" rx="8.02" ry="8.02"/>
      <g>
        <rect class="cls-4" x="937.5" y="1210.88" width="158" height="178.98" rx="24.68" ry="24.68"/>
        <polygon class="cls-7" points="1064 1300.49 978.5 1251.12 978.5 1349.85 1064 1300.49"/>
      </g>
      <g>
        <rect class="cls-4" x="937.32" y="1491.33" width="158" height="178.98" rx="24.68" ry="24.68"/>
        <rect class="cls-7" x="972.5" y="1530.99" width="28.18" height="100"/>
        <rect class="cls-7" x="1022.82" y="1530.99" width="28.18" height="100"/>
      </g>
    </g>
  </g>
</svg>